<svg xmlns="http://www.w3.org/2000/svg" viewBox="0 0 240 240" role="img" aria-labelledby="title desc">
  <title id="title">Naughty Bean Consulting logo</title>
  <desc id="desc">An original logo combining a coffee bean, steam, and connected software nodes.</desc>
  <defs>
    <linearGradient id="bg" x1="0%" y1="0%" x2="100%" y2="100%">
      <stop offset="0%" stop-color="#fff7f0"/>
      <stop offset="100%" stop-color="#efe1d3"/>
    </linearGradient>
    <linearGradient id="bean" x1="25%" y1="10%" x2="75%" y2="100%">
      <stop offset="0%" stop-color="#7a523d"/>
      <stop offset="100%" stop-color="#3c2417"/>
    </linearGradient>
    <linearGradient id="tech" x1="0%" y1="0%" x2="100%" y2="100%">
      <stop offset="0%" stop-color="#23a090"/>
      <stop offset="100%" stop-color="#0f6a61"/>
    </linearGradient>
  </defs>
  <rect width="240" height="240" rx="56" fill="url(#bg)"/>
  <circle cx="190" cy="54" r="18" fill="#ffd2bf" opacity="0.85"/>
  <circle cx="52" cy="188" r="26" fill="#d7efe8" opacity="0.95"/>
  <path d="M120 44c16 16 18 35 6 52" fill="none" stroke="url(#tech)" stroke-linecap="round" stroke-width="8"/>
  <path d="M146 51c14 14 16 29 6 43" fill="none" stroke="#d85f3f" stroke-linecap="round" stroke-width="7"/>
  <g transform="translate(42 60)">
    <path d="M79 0c43 0 77 34 77 76 0 40-32 74-73 76C35 155 0 121 0 78 0 35 35 0 79 0Z" fill="url(#bean)"/>
    <path d="M76 16c-12 12-20 34-20 58 0 23 8 46 22 62" fill="none" stroke="#f4dfd0" stroke-linecap="round" stroke-width="10"/>
    <path d="M129 27 161 14" fill="none" stroke="url(#tech)" stroke-linecap="round" stroke-width="6"/>
    <path d="M144 55h38" fill="none" stroke="url(#tech)" stroke-linecap="round" stroke-width="6"/>
    <path d="M139 87 169 101" fill="none" stroke="url(#tech)" stroke-linecap="round" stroke-width="6"/>
    <circle cx="170" cy="10" r="12" fill="url(#tech)"/>
    <circle cx="188" cy="55" r="11" fill="#d85f3f"/>
    <circle cx="177" cy="106" r="12" fill="url(#tech)"/>
  </g>
</svg>
